<?xml version="1.0" encoding="UTF-8"?>
<svg width="256" height="256" viewBox="0 0 256 256" fill="none" xmlns="http://www.w3.org/2000/svg">
  <path d="M256 128C256 198.692 198.692 256 128 256C57.308 256 0 198.692 0 128C0 57.308 57.308 0 128 0C198.692 0 256 57.308 256 128ZM224 128C224 79.451 176.549 32 128 32C79.451 32 32 79.451 32 128C32 176.549 79.451 224 128 224C176.549 224 224 176.549 224 128Z" fill="#10B981"/>
  <path d="M192 128C192 163.346 163.346 192 128 192C92.654 192 64 163.346 64 128C64 92.654 92.654 64 128 64C163.346 64 192 92.654 192 128ZM160 128C160 110.327 145.673 96 128 96C110.327 96 96 110.327 96 128C96 145.673 110.327 160 128 160C145.673 160 160 145.673 160 128Z" fill="#10B981"/>
  <path d="M144 128C144 119.163 136.837 112 128 112C119.163 112 112 119.163 112 128C112 136.837 119.163 144 128 144C136.837 144 144 136.837 144 128Z" fill="#10B981"/>
</svg> 