<?xml version="1.0" encoding="UTF-8"?>
<svg width="256" height="256" viewBox="0 0 256 256" fill="none" xmlns="http://www.w3.org/2000/svg">
  <path d="M128 0C57.308 0 0 57.308 0 128C0 198.692 57.308 256 128 256C198.692 256 256 198.692 256 128C256 57.308 198.692 0 128 0ZM128 32C176.549 32 224 79.451 224 128C224 176.549 176.549 224 128 224C79.451 224 32 176.549 32 128C32 79.451 79.451 32 128 32Z" fill="#10B981"/>
  <path d="M128 64C92.654 64 64 92.654 64 128C64 163.346 92.654 192 128 192C163.346 192 192 163.346 192 128C192 92.654 163.346 64 128 64ZM128 96C145.673 96 160 110.327 160 128C160 145.673 145.673 160 128 160C110.327 160 96 145.673 96 128C96 110.327 110.327 96 128 96Z" fill="#10B981"/>
  <path d="M128 112C119.163 112 112 119.163 112 128C112 136.837 119.163 144 128 144C136.837 144 144 136.837 144 128C144 119.163 136.837 112 128 112Z" fill="#10B981"/>
</svg> 